PathFileType	4	(X/Y/Z)	C:/Users/beibeiliu/ov580/test_trc/User3\sequence.8_training_dense_left.trc
DataRate	CameraRate	NumFrames	NumMarkers	Units	OrigDataRate	OrigDataStartFrame	OrigNumFrames
120	120	11	19	mm	120	55	81
Frame#	Time	ThumbCMC			ThumbMCP			ThumbIP			ThumbTip			IndexMCP			IndexPIP			IndexTip			MiddleMCP			MiddlePIP			MiddleTip			RingMCP			RingPIP			RingTip			PinkyMCP			PinkyPIP			PinkyTip			BackHand1			BackHand2			BackHand3	
		X0	Y0	Z0	X1	Y1	Z1	X2	Y2	Z2	X3	Y3	Z3	X4	Y4	Z4	X5	Y5	Z5	X6	Y6	Z6	X7	Y7	Z7	X8	Y8	Z8	X9	Y9	Z9	X10	Y10	Z10	X11	Y11	Z11	X12	Y12	Z12	X13	Y13	Z13	X14	Y14	Z14	X15	Y15	Z15	X16	Y16	Z16	X17	Y17	Z17	X18	Y18	Z18	
54	0.45	-157.431	1.35329	-2.89122	-163.526	16.1966	-23.4215	-175.085	31.0601	-48.7114	-178.023	41.8528	-65.4151	-150.955	-24.3696	-74.4756	-153.197	-21.4331	-104.965	-152.133	-17.974	-125.296	-131.789	-41.957	-78.977	-132.016	-38.6377	-109.184	-128.149	-35.7568	-139.529	-110.341	-46.4016	-68.3847	-104.184	-49.1581	-94.6058	-101.204	-48.2672	-117.698	-90.1277	-47.5422	-55.9731	-81.1425	-47.8008	-73.6636	-72.2503	-49.9834	-93.3491	-121.85	-53.2385	-17.902	-120.748	-51.8893	12.5857	-151.151	-32.3916	-8.77058	
55	0.458333	-171.968	-22.0883	-4.66546	-188.254	-12.0071	-29.0796	-201.504	-5.21073	-51.3763	-217.963	3.87458	-66.7206	-166.953	-60.4499	-69.6354	-173.228	-62.9695	-98.7982	-176.648	-64.5357	-123.159	-146.954	-72.4213	-75.2297	-149.528	-76.7241	-104.412	-145.509	-78.9355	-131.678	-124.649	-69.5595	-65.4546	-117.217	-77.1702	-94.1475	-114.213	-80.616	-115.526	-97.7364	-64.4454	-53.8397	-91.5644	-66.0556	-71.4781	-76.1661	-72.2894	-93.3398	-129.193	-66.3516	-14.784	-127.714	-61.2978	12.1924	-159.081	-56.2683	-2.55188	
56	0.466667	-189.467	-29.0744	-3.39863	-205.237	-19.4193	-25.321	-223.696	-12.9312	-46.319	-235.876	-4.78547	-59.3006	-197.337	-75.4694	-62.7648	-207.186	-78.9808	-87.4658	-213.83	-82.5091	-109.619	-176.669	-91.0354	-68.5914	-180.827	-97.7772	-96.5145	-182.442	-102.904	-126.786	-151.956	-87.5609	-60.954	-150.533	-98.2136	-89.393	-153.219	-104.17	-113.958	-126.689	-81.4567	-51.0548	-120.328	-87.5802	-70.3562	-109.433	-97.5417	-92.1144	-146.773	-81.8617	-13.9508	-141.011	-70.8699	17.8476	-178.249	-62.7932	-1.02819	
57	0.475	-194.48	-19.2578	2.35261	-207.699	-8.90761	-21.3731	-225.097	0.388766	-45.9229	-236.418	11.053	-59.3701	-226.305	-63.8464	-57.4667	-236.679	-68.0129	-80.1539	-247.567	-69.3456	-102.539	-211.286	-86.451	-59.9681	-220.294	-91.1286	-82.9542	-229.152	-96.0189	-117.99	-190.085	-91.6667	-58.6877	-196.293	-100.248	-80.5628	-199.479	-105.589	-103.095	-159.324	-93.0633	-49.0487	-156.879	-103.899	-70.5036	-155.686	-114.681	-87.4497	-172.959	-80.7746	-7.90176	-167.124	-70.9913	19.1987	-195.881	-56.1944	6.82894	
58	0.483333	-191.646	-1.95315	4.12332	-199.436	8.94331	-21.5242	-210.877	24.5957	-41.5233	-219.939	37.8942	-59.6758	-240.55	-35.6362	-48.4578	-254.708	-34.2811	-70.9593	-268.888	-33.1466	-96.6244	-236.431	-61.2441	-51.1161	-253.193	-62.1021	-79.5186	-265.674	-62.7009	-108.06	-219.187	-75.9549	-48.6762	-231.988	-82.6686	-73.0403	-240.453	-85.6743	-94.1851	-193.911	-90.1865	-44.3608	-199.747	-97.5054	-63.1626	-205.494	-109.797	-84.3657	-201.086	-67.9497	-4.84302	-183.1	-64.9519	22.7342	-207.364	-39.6368	9.40881	
59	0.491667	-173.067	6.79633	2.94623	-176.992	19.3328	-23.9255	-182.004	35.886	-46.2912	-185.448	48.8795	-65.7801	-237.38	-2.01292	-49.1757	-249.656	6.82556	-71.2629	-259.651	7.25491	-89.4419	-245.362	-29.8831	-49.2852	-258.401	-23.5648	-70.5223	-271.967	-23.5344	-100.179	-235.724	-51.0777	-46.3165	-250.33	-50.2411	-68.266	-263.497	-54.3032	-92.1828	-214.732	-73.0876	-38.3467	-228.483	-81.614	-60.7561	-236.381	-86.508	-76.6857	-208.305	-54.5969	2.15065	-193.684	-54.8162	25.3417	-203.831	-16.7056	11.0075	
60	0.5	-148.967	6.5479	1.10925	-147.267	17.8025	-25.548	-144.993	36.324	-53.2156	-143.113	44.9531	-69.7522	-209.199	17.3672	-47.9052	-219.862	28.7062	-71.0939	-231.665	37.4701	-95.4583	-227.155	3.51705	-48.808	-239.324	9.21483	-70.8275	-252.547	20.7102	-102.36	-229.843	-23.7391	-44.3759	-245.047	-21.3038	-65.8691	-255.841	-16.9076	-87.4561	-221.488	-49.1543	-36.0172	-236.628	-54.6218	-53.179	-251.558	-57.249	-68.5348	-207.348	-30.7315	-0.530436	-189.971	-37.7491	27.254	-186.968	-7.39662	9.17337	
61	0.508333	-122.707	-2.31178	-2.13968	-112.55	6.16157	-27.2852	-102.519	17.6307	-52.1525	-94.8433	26.4956	-72.8719	-175.4	24.1172	-54.9912	-179.318	36.8422	-80.0187	-181.665	48.8115	-101.794	-196.896	18.9451	-56.4418	-206.478	28.1235	-81.0994	-213.243	39.171	-109.348	-210.387	-6.56246	-46.4974	-221.378	3.72086	-68.5818	-235.435	7.76656	-91.812	-216.088	-30.3953	-35.1491	-229.907	-27.2483	-52.4694	-242.405	-24.5974	-69.0574	-192.475	-16.0337	-2.81347	-180.044	-24.7118	23.3819	-159.43	4.07622	7.77804	
62	0.516667	-103.694	-14.588	-2.17489	-90.5186	-9.15739	-30.3431	-78.371	-5.47703	-51.6967	-67.3162	0.0633969	-74.1698	-144.423	18.5351	-66.3914	-143.325	26.2428	-88.3773	-147.046	34.9685	-114.111	-168.181	15.8294	-63.5766	-172.378	25.71	-91.9047	-180.921	32.879	-118.078	-188.129	-0.68825	-54.2504	-194.44	8.50356	-74.3079	-207.694	14.6086	-99.9351	-198.177	-21.4102	-37.2846	-213.018	-17.4619	-54.4367	-228.291	-11.9786	-71.3233	-170.677	-8.72781	-2.15758	-162.658	-16.9593	21.4156	-139.022	0.840975	1.61565	
63	0.525	-92.4347	-22.5797	-1.8319	-76.0155	-21.9886	-26.3808	-62.725	-21.3624	-50.4686	-50.0557	-21.4598	-70.4967	-123.641	4.05992	-70.9428	-121.417	8.62364	-97.8074	-120.43	13.8868	-121.901	-150.189	5.2409	-71.8332	-150.642	9.97837	-96.4441	-152.92	15.978	-127.831	-168.132	-7.65197	-57.2085	-174.641	-0.66826	-82.7089	-185.6	3.72168	-105.21	-180.654	-23.2961	-39.7421	-196.907	-21.3349	-57.6965	-207.276	-14.6489	-78.1742	-155.595	-9.12056	-8.00374	-155.549	-14.3541	22.1809	-124.071	-0.700632	-3.50557	
64	0.533333	-84.6402	-25.5904	-0.48223	-64.2456	-30.7475	-19.6293	-45.6855	-31.4858	-48.0888	-35.6079	-36.3321	-62.5938	-108.417	-8.17562	-75.3506	-103.342	-7.94328	-101.642	-99.1151	-7.4897	-121.783	-131.25	-5.33719	-75.3816	-133.874	-5.23555	-103.779	-135.368	-3.33003	-133.413	-155.68	-15.5719	-63.8747	-158.475	-13.3878	-86.0684	-164.021	-10.6951	-112.237	-167.529	-28.9853	-45.4637	-181.115	-28.5115	-63.7484	-194.483	-26.9511	-79.9783	-146.29	-10.9099	-11.4289	-143.648	-13.0441	17.3478	-111.954	-6.10883	-5.21452	
